<?xml version="1.0" encoding="UTF-8"?>
<svg id="Layer_1" data-name="Layer 1" xmlns="http://www.w3.org/2000/svg" viewBox="0 0 1080 1080">
  <defs>
    <style>
      .cls-1 {
        fill: none;
      }

      .cls-1, .cls-2, .cls-3 {
        stroke-width: 0px;
      }

      .cls-2 {
        fill: #fff;
      }

      .cls-3 {
        fill: #313030;
      }
    </style>
  </defs>
  <rect class="cls-1" x="237.41" y="719.8" width="192" height="114"/>
  <rect class="cls-3" x="0" y="0" width="1080" height="1080" rx="540" ry="540"/>
  <g>
    <path class="cls-2" d="M976.25,561.85c-2.97,23.13-4.16,46.66-9.19,69.34-38.43,173.2-142.26,286.72-312.16,338.77-30.07,9.21-59.25-6.69-66.06-36.55-5.91-25.93,7.31-52.89,37.58-61.62,90.96-26.21,160.15-80.19,205.83-163.4,26.35-48,38.81-99.77,39.93-154.43.55-27.07,13.84-45.96,36.44-52.7,28.5-8.5,57.46,8.01,64.78,36.89.78,3.09,1.88,6.11,2.84,9.16v14.56Z"/>
    <path class="cls-2" d="M540.01,580.9c26.08-26.25,51.05-51.49,76.13-76.61,68.25-68.36,136.5-136.73,204.85-204.99,21.05-21.02,48.85-25.36,71.87-11.74,33.32,19.71,39.08,62.72,11.33,91.25-33.53,34.48-67.86,68.18-101.86,102.21-72,72.05-144.04,144.06-216,216.14-30.6,30.65-62.5,30.57-92.86.03-51.29-51.59-102.91-102.85-154.16-154.49-24.72-24.91-25.45-60.19-2.35-83.32,23.7-23.73,58.79-22.84,84.18,2.47,39.2,39.07,78.22,78.32,118.87,119.04Z"/>
    <path class="cls-2" d="M103.75,570.48c.56-10.04.17-20.24,1.88-30.08,4.41-25.46,27.55-43.03,53.27-41.43,25.5,1.59,45.36,21.95,47.97,47.93,2.78,27.67,3.36,56.06,10.34,82.71,31.9,121.82,109.13,201.69,228.99,240.03,30.75,9.83,44.14,24.65,44.92,52.24.95,33.64-31.74,58.02-66.1,48.43-107.71-30.05-191.92-92.42-252.45-186.32-41.83-64.89-64.08-136.29-68.82-213.51Z"/>
    <path class="cls-2" d="M724.02,179.47c.05,45.06-35.7,81.06-80.55,81.11-44.62.05-81.2-36.24-81.4-80.73-.19-44.26,36.58-81.13,80.99-81.21,44.73-.08,80.91,36.04,80.96,80.83Z"/>
    <path class="cls-2" d="M355.16,179.78c-.06-44.86,35.94-81.08,80.66-81.14,44.43-.06,81.32,36.64,81.31,80.9,0,44.42-36.67,81.06-81.1,81.04-44.99-.02-80.81-35.81-80.87-80.8Z"/>
    <path class="cls-2" d="M175.52,283.55c-.04-44.79,36.01-81.07,80.71-81.2,44.27-.13,81.13,36.59,81.29,80.98.16,44.18-36.42,80.77-81.1,81.12-44.43.34-80.85-36.09-80.9-80.9Z"/>
    <path class="cls-2" d="M539.79,981.36c-26.75.06-47.41-20.9-47.16-47.82.24-24.97,21.59-46.06,46.76-46.19,25.61-.13,47.43,21.62,47.15,46.99-.29,26.55-20.59,46.96-46.75,47.02Z"/>
  </g>
</svg>