<svg width="48" height="48" viewBox="0 0 48 48" fill="none" xmlns="http://www.w3.org/2000/svg">
<g clip-path="url(#clip0_108_69)">
<path d="M6.86891 25.264V0H0.00268555V22.736C0.00268555 25.3302 2.1058 27.4333 4.70002 27.4333C5.89202 27.4333 6.85824 28.3996 6.85824 29.5916V48H13.7245V32.12C13.7245 29.5258 11.6214 27.4227 9.02713 27.4227C7.83513 27.4227 6.86891 26.4564 6.86891 25.2644V25.264Z" fill="#313030"/>
<path d="M17.1524 25.264V0H10.2861V22.736C10.2861 25.3302 12.3892 27.4333 14.9835 27.4333C16.1755 27.4333 17.1417 28.3996 17.1417 29.5916V48H24.0079V32.12C24.0079 29.5258 21.9048 27.4227 19.3106 27.4227C18.1186 27.4227 17.1524 26.4564 17.1524 25.2644V25.264Z" fill="#313030"/>
<path d="M41.1472 6.86622L47.9974 6.86089V0.00533333L41.1472 0H20.5698V22.736C20.5698 25.3302 22.6729 27.4333 25.2672 27.4333C26.4592 27.4333 27.4254 28.3996 27.4254 29.5916V48H34.2916V32.12C34.2916 29.5258 32.1885 27.4227 29.5943 27.4227C28.4023 27.4227 27.436 26.4564 27.436 25.2644V24.0058H37.7196L44.5698 24.0004V17.1449L37.7196 17.1396H27.436V6.86711H41.1472V6.86622Z" fill="#313030"/>
</g>
<defs>
<clipPath id="clip0_108_69">
<rect width="48" height="48" fill="white"/>
</clipPath>
</defs>
</svg>
