<?xml version="1.0" encoding="UTF-8"?>
<svg id="Layer_1" data-name="Layer 1" xmlns="http://www.w3.org/2000/svg" viewBox="0 0 1080 1080">
  <defs>
    <style>
      .cls-1 {
        fill: none;
      }

      .cls-1, .cls-2, .cls-3 {
        stroke-width: 0px;
      }

      .cls-2 {
        fill: #fff;
        fill-rule: evenodd;
      }

      .cls-3 {
        fill: #313030;
      }
    </style>
  </defs>
  <rect class="cls-3" x="0" y="0" width="1080" height="1080" rx="540" ry="540"/>
  <rect class="cls-1" x="237.41" y="719.8" width="192" height="114"/>
  <path class="cls-2" d="M829.42,169.87c-5.46-16.34-15.03-29.91-29.47-41.64-.17,1.46-.23,2.94-.17,4.41,2.25,14.64,3.64,29.15,2.73,44.12-1.24,19.74-4.93,39.24-10.98,58.08-12.98,41.35-34.83,78.42-57.54,115.05-4.44,7.16-8.97,14.27-13.5,21.37h0s0,.01,0,.01c-14.94,23.42-29.89,46.85-41.45,72.23-6.1,13.39-10.46,27.22-10.17,41.96.38,19.7,8.61,36.41,22.66,50.2,5.46,5.36,11.03,10.62,16.59,15.88h0s0,0,0,0h0s0,0,0,0c4.87,4.6,9.74,9.2,14.54,13.87,17.05,16.59,24.23,36.45,20.14,60.12-4.66,27.24-14.79,53.28-29.79,76.56-25.12,39.16-59.21,69.89-95.18,98.73-12.51,10.03-25.25,19.79-37.99,29.55h0c-8.74,6.7-17.48,13.4-26.16,20.18-1.14.89-2.35,1.71-3.58,2.54-3.2,2.16-6.51,4.4-9,8.22,32.74-6.36,64.24-17.91,93.27-34.22,37.87-21.2,71.03-49.77,97.52-83.99,27.01-34.98,46.84-74.88,58.36-117.44,4.28-15.48,6.62-30.53.19-46.1-8.24-19.89-24.07-33.08-39.98-46.23-3.79-3.13-7.68-6.13-11.57-9.13-8.37-6.45-16.74-12.9-24.03-20.62-9.07-9.59-13.33-19.95-7.14-32.99,3.82-8.22,8.08-16.23,12.76-24,8.37-13.6,17.02-27.02,25.68-40.44h0s0,0,0,0h0s0,0,0,0h0c14.55-22.57,29.11-45.14,42.3-68.56,16.73-29.64,31.59-60.01,40.25-93.04,6.51-24.8,9.04-49.74.72-74.69ZM652.03,644.74c3.76-3.34,7.49-6.68,11.52-10.37-2.1-.56-4.32-.49-6.37.22-21.87,5.27-42.42,13.95-62.45,23.85-19.69,9.74-37.92,21.48-52.97,37.81-12.8,13.83-25.53,27.7-38.21,41.62-9.14,10.04-18.4,19.97-27.67,29.9h0s0,0,0,0h0s0,0,0,0c-10.3,11.04-20.6,22.07-30.73,33.27-3.12,3.45-6.35,6.8-9.57,10.14h0s0,0,0,0c-3.18,3.3-6.35,6.59-9.43,9.98-1.49,1.63-2.97,3.26-4.45,4.89-15.26,16.81-30.5,33.6-49.76,46.28-1.43.93-2.85,1.88-4.27,2.82h0c-16.86,11.14-33.67,22.25-53.9,26.92-10.26,2.36-15.74-3.19-13.27-13.36,3.97-16.18,13.1-29.76,22.2-43.26l.81-1.2c25.83-38.47,54.07-75.21,82.31-111.96h0s0,0,0,0c13.4-17.43,26.79-34.86,39.93-52.48l2.87-3.86c26.39-35.4,52.81-70.83,73.5-109.94,9.03-17.11,16.16-34.5,15.55-54.74-.56-18.41-8.96-31.41-22.75-42.08-15.08-11.68-32.49-19.07-50.15-25.71-41.05-15.41-80.51-33.74-115.01-61.17-9.41-7.37-18.47-15.49-23.27-27.02-5.05-12.15,1.49-23.85,14.02-26.17,10.93-1.98,21.57-.26,32.11,1.84,25.26,5.05,49.51,13.51,73.22,23.34,29.07,11.99,58.58,18.77,90.35,15.67,17.3-1.69,34.35-4.04,50.93-8.95,24.68-7.32,47.53-18.07,65.88-36.66.15-.15.3-.29.45-.44h0c1.79-1.76,3.72-3.65,2.35-6.36-1.61-3.19-4.99-3.75-8.07-2.95-3.55.94-6.98,2.27-10.22,3.98-18.23,9.48-38.25,15.07-58.78,16.43-26.37,1.67-52.85-.52-78.58-6.5-23.52-5.27-46.49-12.38-69.45-19.5h0s0,0,0,0c-12.37-3.83-24.75-7.67-37.21-11.21l-2.16-.61c-22.75-6.47-45.66-12.97-69.78-8.5-18.84,3.48-33.23,12.69-38.08,34.08-3.26,14.38-1.88,28.59.95,42.71,4.47,22.24,18.9,37.68,36.42,50.84,22.2,16.7,47.24,28.16,72.28,39.63,2.44,1.12,4.88,2.24,7.32,3.36,2.5,1.16,5.01,2.3,7.52,3.45h0c18.16,8.31,36.33,16.61,52.55,28.48,13.27,9.74,21.12,22.06,18.5,39.02-2.33,14.31-6.74,28.2-13.09,41.26-25.61,53.82-61.79,100.73-98.12,147.49-10.95,14.09-22.26,27.91-33.56,41.72-4.27,5.22-8.55,10.44-12.8,15.68-17,21.04-34.07,42.02-51.23,62.95-11.09,13.51-21.8,27.19-26.88,44.34-9.77,32.86,3.3,55.15,35.34,64.16,13.19,3.7,26.99,4.77,40.6,3.14,20.27-2.33,39.37-7.25,56.86-17.75,23.81-14.35,44.12-33.06,63.68-52.42,28.11-27.79,54.45-57.26,79.89-87.5,11.46-13.62,23.1-27.07,34.74-40.53h0c10.24-11.84,20.48-23.68,30.59-35.62,1.63-1.92,3.25-3.84,4.88-5.76h0c19.64-23.22,39.26-46.41,62.12-66.71ZM572.91,310.83c-44.33.9-81.98-35.88-82.57-80.77-.57-45.15,38.11-85.68,88.14-82.67,40.43,2.46,77.24,35.62,77.58,81.43.35,46.32-38.95,83.4-83.15,82.01ZM515.07,228.95c-.26,33.86,26.57,58.35,58.17,58.18,32.39-.17,56.77-24.07,58.17-55.18,1.55-35.56-26.41-60.86-58.3-60.72-32.2.15-58.13,24.96-58.05,57.73ZM256.98,374.56h0c2.61-10.35,5.22-20.69,7.67-31.05-17.82,27.04-32.21,56.16-42.85,86.7-15.38,42.87-20.98,88.6-16.4,133.88,1.42,14.44,3.78,28.77,7.05,42.91,10.35,43.36,29.1,83.14,53.02,120.61,9.42,15.04,19.86,29.43,31.26,43.05-2.24-6.23-4.73-12.34-7.3-18.42-17.77-42.07-35.3-84.25-47.37-128.36-7.27-26.6-11.93-53.6-11.86-81.36-.15-22.55,1.51-45.07,4.95-67.36,3.68-22.45,8.33-44.7,13.49-66.8,2.64-11.31,5.48-22.56,8.32-33.8ZM621.05,863.17c25.23-12.97,49.59-27.53,72.94-43.6,27.38-18.67,52.65-40.22,75.38-64.27,25.68-27.4,47.32-57.73,63.12-91.92,11.85-25.65,20.06-52.81,24.42-80.69,3.39-21.11,4.48-42.52,3.24-63.87-2.36-38.82-11.14-76.48-24.87-112.92-6.87-18.1-14.72-35.82-23.52-53.08-.06-.12-.14-.24-.21-.36-.34-.57-.68-1.14.02-2.09,21.62,29.56,38.74,61.29,49.92,96.02,7.54,23.64,12.2,48.08,13.89,72.82,4.43,61.14-10.61,117.74-39.31,171.15-13.84,25.79-31.3,49.13-51.18,70.83-31.83,34.71-70.11,62.99-112.74,83.31-16.37,7.89-33.49,14.14-51.1,18.68ZM482.05,212.98c-55.03,16.37-105.88,41.76-155.8,69.33,45.41-37.74,97.55-60.51,155.8-69.33Z"/>
</svg>